<svg xmlns="http://www.w3.org/2000/svg" viewBox="0 0 1280 1280"><defs><style>.cls-1{fill:#fff;}</style></defs><g id="图层_3" data-name="图层 3"><circle cx="640" cy="640" r="640"/></g><g id="图层_2" data-name="图层 2"><path class="cls-1" d="M421,638.5A142.5,142.5,0,0,0,563,781V893c-140.83,0-255-114.17-255-255S422.17,383,563,383V496A142.5,142.5,0,0,0,421,638.5Z"/><path class="cls-1" d="M716,638c0,140.83,114.17,255,255,255V781h-.5a142.5,142.5,0,0,1,0-285h.5V383C830.17,383,716,497.17,716,638Z"/><path class="cls-1" d="M828,638c0,140.83-114.17,255-255,255V781h.5a142.5,142.5,0,0,0,0-285H573V383C713.83,383,828,497.17,828,638Z"/></g></svg>